<svg width="7" height="8" viewBox="0 0 7 8" fill="none" xmlns="http://www.w3.org/2000/svg">
<g clip-path="url(#clip0_2543_7818)">
<g clip-path="url(#clip1_2543_7818)">
<path d="M1.66748 2.76843C1.66748 2.54959 1.84488 2.37219 2.06372 2.37219H2.8562C3.07503 2.37219 3.25243 2.19479 3.25243 1.97595C3.25243 1.75712 3.07503 1.57971 2.8562 1.57971H2.06372C1.40721 1.57971 0.875 2.11192 0.875 2.76843V5.5421C0.875 6.19863 1.40721 6.73082 2.06372 6.73082H4.83739C5.49392 6.73082 6.02611 6.19863 6.02611 5.5421V4.74962C6.02611 4.53079 5.84871 4.35339 5.62987 4.35339C5.41103 4.35339 5.23363 4.53079 5.23363 4.74962V5.5421C5.23363 5.76095 5.05623 5.93834 4.83739 5.93834H2.06372C1.84488 5.93834 1.66748 5.76095 1.66748 5.5421V2.76843Z" fill="white"/>
<path d="M4.44433 1.18347C4.2255 1.18347 4.04809 1.36088 4.04809 1.57971C4.04809 1.79855 4.2255 1.97595 4.44433 1.97595H5.07269L2.97543 4.0732C2.82069 4.22794 2.82069 4.47883 2.97543 4.63357C3.13017 4.7883 3.38106 4.7883 3.5358 4.63357L5.63305 2.53632V3.16467C5.63305 3.3835 5.81045 3.56091 6.02929 3.56091C6.24813 3.56091 6.42553 3.3835 6.42553 3.16467V1.57971C6.42553 1.36088 6.24813 1.18347 6.02929 1.18347H4.44433Z" fill="white"/>
</g>
</g>
<defs>
<clipPath id="clip0_2543_7818">
<rect width="6.33983" height="6.33983" fill="white" transform="translate(0.480469 0.787415)"/>
</clipPath>
<clipPath id="clip1_2543_7818">
<rect width="6.33983" height="6.33983" fill="white" transform="translate(0.480469 0.787415)"/>
</clipPath>
</defs>
</svg>
